<?xml version="1.0" encoding="UTF-8" standalone="no"?>
<!DOCTYPE svg PUBLIC "-//W3C//DTD SVG 1.1//EN"
 "http://www.w3.org/Graphics/SVG/1.1/DTD/svg11.dtd">
<!-- Generated by graphviz version 2.43.0 (0)
 -->
<!-- Title: Tree Pages: 1 -->
<svg width="1586pt" height="520pt"
 viewBox="0.00 0.00 1586.00 520.00" xmlns="http://www.w3.org/2000/svg" xmlns:xlink="http://www.w3.org/1999/xlink">
<g id="graph0" class="graph" transform="scale(1 1) rotate(0) translate(4 516)">
<title>Tree</title>
<polygon fill="white" stroke="transparent" points="-4,4 -4,-516 1582,-516 1582,4 -4,4"/>
<!-- 0 -->
<g id="node1" class="node">
<title>0</title>
<path fill="#eadefb" stroke="black" d="M840,-512C840,-512 625,-512 625,-512 619,-512 613,-506 613,-500 613,-500 613,-441 613,-441 613,-435 619,-429 625,-429 625,-429 840,-429 840,-429 846,-429 852,-435 852,-441 852,-441 852,-500 852,-500 852,-506 846,-512 840,-512"/>
<text text-anchor="start" x="676" y="-496.8" font-family="Helvetica,sans-Serif" font-size="14.00">R4_raw ≤ 9.661</text>
<text text-anchor="start" x="688.5" y="-481.8" font-family="Helvetica,sans-Serif" font-size="14.00">gini = 0.653</text>
<text text-anchor="start" x="670.5" y="-466.8" font-family="Helvetica,sans-Serif" font-size="14.00">samples = 88469</text>
<text text-anchor="start" x="621" y="-451.8" font-family="Helvetica,sans-Serif" font-size="14.00">value = [23542, 27439, 37488]</text>
<text text-anchor="start" x="663" y="-436.8" font-family="Helvetica,sans-Serif" font-size="14.00">class = background</text>
</g>
<!-- 1 -->
<g id="node2" class="node">
<title>1</title>
<path fill="#aa7aed" stroke="black" d="M626,-393C626,-393 429,-393 429,-393 423,-393 417,-387 417,-381 417,-381 417,-322 417,-322 417,-316 423,-310 429,-310 429,-310 626,-310 626,-310 632,-310 638,-316 638,-322 638,-322 638,-381 638,-381 638,-387 632,-393 626,-393"/>
<text text-anchor="start" x="471" y="-377.8" font-family="Helvetica,sans-Serif" font-size="14.00">R7_raw ≤ 3.093</text>
<text text-anchor="start" x="483.5" y="-362.8" font-family="Helvetica,sans-Serif" font-size="14.00">gini = 0.392</text>
<text text-anchor="start" x="465.5" y="-347.8" font-family="Helvetica,sans-Serif" font-size="14.00">samples = 40501</text>
<text text-anchor="start" x="425" y="-332.8" font-family="Helvetica,sans-Serif" font-size="14.00">value = [1237, 9045, 30219]</text>
<text text-anchor="start" x="458" y="-317.8" font-family="Helvetica,sans-Serif" font-size="14.00">class = background</text>
</g>
<!-- 0&#45;&gt;1 -->
<g id="edge1" class="edge">
<title>0&#45;&gt;1</title>
<path fill="none" stroke="black" d="M661.38,-428.91C644.04,-419.02 625.39,-408.37 607.67,-398.25"/>
<polygon fill="black" stroke="black" points="608.92,-394.94 598.5,-393.02 605.45,-401.02 608.92,-394.94"/>
<text text-anchor="middle" x="605.09" y="-413.44" font-family="Helvetica,sans-Serif" font-size="14.00">True</text>
</g>
<!-- 158 -->
<g id="node13" class="node">
<title>158</title>
<path fill="#fceee5" stroke="black" d="M1042.5,-393C1042.5,-393 836.5,-393 836.5,-393 830.5,-393 824.5,-387 824.5,-381 824.5,-381 824.5,-322 824.5,-322 824.5,-316 830.5,-310 836.5,-310 836.5,-310 1042.5,-310 1042.5,-310 1048.5,-310 1054.5,-316 1054.5,-322 1054.5,-322 1054.5,-381 1054.5,-381 1054.5,-387 1048.5,-393 1042.5,-393"/>
<text text-anchor="start" x="878.5" y="-377.8" font-family="Helvetica,sans-Serif" font-size="14.00">R6_raw ≤ 14.759</text>
<text text-anchor="start" x="895.5" y="-362.8" font-family="Helvetica,sans-Serif" font-size="14.00">gini = 0.614</text>
<text text-anchor="start" x="877.5" y="-347.8" font-family="Helvetica,sans-Serif" font-size="14.00">samples = 47968</text>
<text text-anchor="start" x="832.5" y="-332.8" font-family="Helvetica,sans-Serif" font-size="14.00">value = [22305, 18394, 7269]</text>
<text text-anchor="start" x="885.5" y="-317.8" font-family="Helvetica,sans-Serif" font-size="14.00">class = banana</text>
</g>
<!-- 0&#45;&gt;158 -->
<g id="edge12" class="edge">
<title>0&#45;&gt;158</title>
<path fill="none" stroke="black" d="M804.32,-428.91C821.98,-418.92 841,-408.17 859.04,-397.98"/>
<polygon fill="black" stroke="black" points="860.83,-400.99 867.81,-393.02 857.38,-394.89 860.83,-400.99"/>
<text text-anchor="middle" x="861.12" y="-413.41" font-family="Helvetica,sans-Serif" font-size="14.00">False</text>
</g>
<!-- 2 -->
<g id="node3" class="node">
<title>2</title>
<path fill="#8139e5" stroke="black" d="M304,-274C304,-274 161,-274 161,-274 155,-274 149,-268 149,-262 149,-262 149,-203 149,-203 149,-197 155,-191 161,-191 161,-191 304,-191 304,-191 310,-191 316,-197 316,-203 316,-203 316,-262 316,-262 316,-268 310,-274 304,-274"/>
<text text-anchor="start" x="160" y="-258.8" font-family="Helvetica,sans-Serif" font-size="14.00">Temp._raw ≤ 25.089</text>
<text text-anchor="start" x="197.5" y="-243.8" font-family="Helvetica,sans-Serif" font-size="14.00">gini = 0.0</text>
<text text-anchor="start" x="170.5" y="-228.8" font-family="Helvetica,sans-Serif" font-size="14.00">samples = 13832</text>
<text text-anchor="start" x="157" y="-213.8" font-family="Helvetica,sans-Serif" font-size="14.00">value = [0, 1, 13831]</text>
<text text-anchor="start" x="163" y="-198.8" font-family="Helvetica,sans-Serif" font-size="14.00">class = background</text>
</g>
<!-- 1&#45;&gt;2 -->
<g id="edge2" class="edge">
<title>1&#45;&gt;2</title>
<path fill="none" stroke="black" d="M425.15,-309.91C392.88,-297.11 357.41,-283.04 325.8,-270.51"/>
<polygon fill="black" stroke="black" points="326.71,-267.1 316.13,-266.67 324.13,-273.61 326.71,-267.1"/>
</g>
<!-- 5 -->
<g id="node6" class="node">
<title>5</title>
<path fill="#caacf4" stroke="black" d="M626,-274C626,-274 429,-274 429,-274 423,-274 417,-268 417,-262 417,-262 417,-203 417,-203 417,-197 423,-191 429,-191 429,-191 626,-191 626,-191 632,-191 638,-197 638,-203 638,-203 638,-262 638,-262 638,-268 632,-274 626,-274"/>
<text text-anchor="start" x="471" y="-258.8" font-family="Helvetica,sans-Serif" font-size="14.00">R2_raw ≤ 7.314</text>
<text text-anchor="start" x="483.5" y="-243.8" font-family="Helvetica,sans-Serif" font-size="14.00">gini = 0.505</text>
<text text-anchor="start" x="465.5" y="-228.8" font-family="Helvetica,sans-Serif" font-size="14.00">samples = 26669</text>
<text text-anchor="start" x="425" y="-213.8" font-family="Helvetica,sans-Serif" font-size="14.00">value = [1237, 9044, 16388]</text>
<text text-anchor="start" x="458" y="-198.8" font-family="Helvetica,sans-Serif" font-size="14.00">class = background</text>
</g>
<!-- 1&#45;&gt;5 -->
<g id="edge5" class="edge">
<title>1&#45;&gt;5</title>
<path fill="none" stroke="black" d="M527.5,-309.91C527.5,-301.65 527.5,-292.86 527.5,-284.3"/>
<polygon fill="black" stroke="black" points="531,-284.02 527.5,-274.02 524,-284.02 531,-284.02"/>
</g>
<!-- 3 -->
<g id="node4" class="node">
<title>3</title>
<path fill="#39e581" stroke="black" d="M119,-147.5C119,-147.5 12,-147.5 12,-147.5 6,-147.5 0,-141.5 0,-135.5 0,-135.5 0,-91.5 0,-91.5 0,-85.5 6,-79.5 12,-79.5 12,-79.5 119,-79.5 119,-79.5 125,-79.5 131,-85.5 131,-91.5 131,-91.5 131,-135.5 131,-135.5 131,-141.5 125,-147.5 119,-147.5"/>
<text text-anchor="start" x="30.5" y="-132.3" font-family="Helvetica,sans-Serif" font-size="14.00">gini = 0.0</text>
<text text-anchor="start" x="21.5" y="-117.3" font-family="Helvetica,sans-Serif" font-size="14.00">samples = 1</text>
<text text-anchor="start" x="8" y="-102.3" font-family="Helvetica,sans-Serif" font-size="14.00">value = [0, 1, 0]</text>
<text text-anchor="start" x="21.5" y="-87.3" font-family="Helvetica,sans-Serif" font-size="14.00">class = wine</text>
</g>
<!-- 2&#45;&gt;3 -->
<g id="edge3" class="edge">
<title>2&#45;&gt;3</title>
<path fill="none" stroke="black" d="M174.56,-190.91C157.24,-178.77 138.29,-165.49 121.11,-153.46"/>
<polygon fill="black" stroke="black" points="123.04,-150.54 112.84,-147.67 119.02,-156.27 123.04,-150.54"/>
</g>
<!-- 4 -->
<g id="node5" class="node">
<title>4</title>
<path fill="#8139e5" stroke="black" d="M304,-147.5C304,-147.5 161,-147.5 161,-147.5 155,-147.5 149,-141.5 149,-135.5 149,-135.5 149,-91.5 149,-91.5 149,-85.5 155,-79.5 161,-79.5 161,-79.5 304,-79.5 304,-79.5 310,-79.5 316,-85.5 316,-91.5 316,-91.5 316,-135.5 316,-135.5 316,-141.5 310,-147.5 304,-147.5"/>
<text text-anchor="start" x="197.5" y="-132.3" font-family="Helvetica,sans-Serif" font-size="14.00">gini = 0.0</text>
<text text-anchor="start" x="170.5" y="-117.3" font-family="Helvetica,sans-Serif" font-size="14.00">samples = 13831</text>
<text text-anchor="start" x="157" y="-102.3" font-family="Helvetica,sans-Serif" font-size="14.00">value = [0, 0, 13831]</text>
<text text-anchor="start" x="163" y="-87.3" font-family="Helvetica,sans-Serif" font-size="14.00">class = background</text>
</g>
<!-- 2&#45;&gt;4 -->
<g id="edge4" class="edge">
<title>2&#45;&gt;4</title>
<path fill="none" stroke="black" d="M232.5,-190.91C232.5,-180.2 232.5,-168.62 232.5,-157.78"/>
<polygon fill="black" stroke="black" points="236,-157.67 232.5,-147.67 229,-157.67 236,-157.67"/>
</g>
<!-- 6 -->
<g id="node7" class="node">
<title>6</title>
<path fill="#9c64eb" stroke="black" d="M515.5,-155C515.5,-155 345.5,-155 345.5,-155 339.5,-155 333.5,-149 333.5,-143 333.5,-143 333.5,-84 333.5,-84 333.5,-78 339.5,-72 345.5,-72 345.5,-72 515.5,-72 515.5,-72 521.5,-72 527.5,-78 527.5,-84 527.5,-84 527.5,-143 527.5,-143 527.5,-149 521.5,-155 515.5,-155"/>
<text text-anchor="start" x="383" y="-139.8" font-family="Helvetica,sans-Serif" font-size="14.00">R8_raw ≤ 7.5</text>
<text text-anchor="start" x="386.5" y="-124.8" font-family="Helvetica,sans-Serif" font-size="14.00">gini = 0.293</text>
<text text-anchor="start" x="368.5" y="-109.8" font-family="Helvetica,sans-Serif" font-size="14.00">samples = 13982</text>
<text text-anchor="start" x="341.5" y="-94.8" font-family="Helvetica,sans-Serif" font-size="14.00">value = [0, 2493, 11489]</text>
<text text-anchor="start" x="361" y="-79.8" font-family="Helvetica,sans-Serif" font-size="14.00">class = background</text>
</g>
<!-- 5&#45;&gt;6 -->
<g id="edge6" class="edge">
<title>5&#45;&gt;6</title>
<path fill="none" stroke="black" d="M493.85,-190.91C486.32,-181.83 478.27,-172.12 470.52,-162.77"/>
<polygon fill="black" stroke="black" points="473.17,-160.49 464.09,-155.02 467.78,-164.95 473.17,-160.49"/>
</g>
<!-- 47 -->
<g id="node10" class="node">
<title>47</title>
<path fill="#d5f9e4" stroke="black" d="M745.5,-155C745.5,-155 557.5,-155 557.5,-155 551.5,-155 545.5,-149 545.5,-143 545.5,-143 545.5,-84 545.5,-84 545.5,-78 551.5,-72 557.5,-72 557.5,-72 745.5,-72 745.5,-72 751.5,-72 757.5,-78 757.5,-84 757.5,-84 757.5,-143 757.5,-143 757.5,-149 751.5,-155 745.5,-155"/>
<text text-anchor="start" x="579" y="-139.8" font-family="Helvetica,sans-Serif" font-size="14.00">Temp._raw ≤ 25.379</text>
<text text-anchor="start" x="607.5" y="-124.8" font-family="Helvetica,sans-Serif" font-size="14.00">gini = 0.575</text>
<text text-anchor="start" x="589.5" y="-109.8" font-family="Helvetica,sans-Serif" font-size="14.00">samples = 12687</text>
<text text-anchor="start" x="553.5" y="-94.8" font-family="Helvetica,sans-Serif" font-size="14.00">value = [1237, 6551, 4899]</text>
<text text-anchor="start" x="607.5" y="-79.8" font-family="Helvetica,sans-Serif" font-size="14.00">class = wine</text>
</g>
<!-- 5&#45;&gt;47 -->
<g id="edge9" class="edge">
<title>5&#45;&gt;47</title>
<path fill="none" stroke="black" d="M570.52,-190.91C580.43,-181.56 591.05,-171.54 601.23,-161.93"/>
<polygon fill="black" stroke="black" points="603.68,-164.43 608.55,-155.02 598.88,-159.34 603.68,-164.43"/>
</g>
<!-- 7 -->
<g id="node8" class="node">
<title>7</title>
<path fill="#c0c0c0" stroke="black" d="M409.5,-36C409.5,-36 379.5,-36 379.5,-36 373.5,-36 367.5,-30 367.5,-24 367.5,-24 367.5,-12 367.5,-12 367.5,-6 373.5,0 379.5,0 379.5,0 409.5,0 409.5,0 415.5,0 421.5,-6 421.5,-12 421.5,-12 421.5,-24 421.5,-24 421.5,-30 415.5,-36 409.5,-36"/>
<text text-anchor="middle" x="394.5" y="-14.3" font-family="Helvetica,sans-Serif" font-size="14.00">(...)</text>
</g>
<!-- 6&#45;&gt;7 -->
<g id="edge7" class="edge">
<title>6&#45;&gt;7</title>
<path fill="none" stroke="black" d="M414.81,-71.76C411.46,-63.04 407.99,-54.04 404.89,-45.99"/>
<polygon fill="black" stroke="black" points="408.06,-44.48 401.2,-36.41 401.53,-46.99 408.06,-44.48"/>
</g>
<!-- 46 -->
<g id="node9" class="node">
<title>46</title>
<path fill="#c0c0c0" stroke="black" d="M481.5,-36C481.5,-36 451.5,-36 451.5,-36 445.5,-36 439.5,-30 439.5,-24 439.5,-24 439.5,-12 439.5,-12 439.5,-6 445.5,0 451.5,0 451.5,0 481.5,0 481.5,0 487.5,0 493.5,-6 493.5,-12 493.5,-12 493.5,-24 493.5,-24 493.5,-30 487.5,-36 481.5,-36"/>
<text text-anchor="middle" x="466.5" y="-14.3" font-family="Helvetica,sans-Serif" font-size="14.00">(...)</text>
</g>
<!-- 6&#45;&gt;46 -->
<g id="edge8" class="edge">
<title>6&#45;&gt;46</title>
<path fill="none" stroke="black" d="M446.19,-71.76C449.54,-63.04 453.01,-54.04 456.11,-45.99"/>
<polygon fill="black" stroke="black" points="459.47,-46.99 459.8,-36.41 452.94,-44.48 459.47,-46.99"/>
</g>
<!-- 48 -->
<g id="node11" class="node">
<title>48</title>
<path fill="#c0c0c0" stroke="black" d="M623.5,-36C623.5,-36 593.5,-36 593.5,-36 587.5,-36 581.5,-30 581.5,-24 581.5,-24 581.5,-12 581.5,-12 581.5,-6 587.5,0 593.5,0 593.5,0 623.5,0 623.5,0 629.5,0 635.5,-6 635.5,-12 635.5,-12 635.5,-24 635.5,-24 635.5,-30 629.5,-36 623.5,-36"/>
<text text-anchor="middle" x="608.5" y="-14.3" font-family="Helvetica,sans-Serif" font-size="14.00">(...)</text>
</g>
<!-- 47&#45;&gt;48 -->
<g id="edge10" class="edge">
<title>47&#45;&gt;48</title>
<path fill="none" stroke="black" d="M632.76,-71.76C628.71,-62.94 624.52,-53.84 620.79,-45.72"/>
<polygon fill="black" stroke="black" points="623.86,-44.03 616.5,-36.41 617.5,-46.95 623.86,-44.03"/>
</g>
<!-- 51 -->
<g id="node12" class="node">
<title>51</title>
<path fill="#c0c0c0" stroke="black" d="M695.5,-36C695.5,-36 665.5,-36 665.5,-36 659.5,-36 653.5,-30 653.5,-24 653.5,-24 653.5,-12 653.5,-12 653.5,-6 659.5,0 665.5,0 665.5,0 695.5,0 695.5,0 701.5,0 707.5,-6 707.5,-12 707.5,-12 707.5,-24 707.5,-24 707.5,-30 701.5,-36 695.5,-36"/>
<text text-anchor="middle" x="680.5" y="-14.3" font-family="Helvetica,sans-Serif" font-size="14.00">(...)</text>
</g>
<!-- 47&#45;&gt;51 -->
<g id="edge11" class="edge">
<title>47&#45;&gt;51</title>
<path fill="none" stroke="black" d="M664.14,-71.76C666.84,-63.04 669.63,-54.04 672.13,-45.99"/>
<polygon fill="black" stroke="black" points="675.48,-46.99 675.1,-36.41 668.8,-44.92 675.48,-46.99"/>
</g>
<!-- 159 -->
<g id="node14" class="node">
<title>159</title>
<path fill="#70eca4" stroke="black" d="M1020,-274C1020,-274 859,-274 859,-274 853,-274 847,-268 847,-262 847,-262 847,-203 847,-203 847,-197 853,-191 859,-191 859,-191 1020,-191 1020,-191 1026,-191 1032,-197 1032,-203 1032,-203 1032,-262 1032,-262 1032,-268 1026,-274 1020,-274"/>
<text text-anchor="start" x="887.5" y="-258.8" font-family="Helvetica,sans-Serif" font-size="14.00">R7_raw ≤ 3.42</text>
<text text-anchor="start" x="895.5" y="-243.8" font-family="Helvetica,sans-Serif" font-size="14.00">gini = 0.341</text>
<text text-anchor="start" x="877.5" y="-228.8" font-family="Helvetica,sans-Serif" font-size="14.00">samples = 12301</text>
<text text-anchor="start" x="855" y="-213.8" font-family="Helvetica,sans-Serif" font-size="14.00">value = [0, 9616, 2685]</text>
<text text-anchor="start" x="895.5" y="-198.8" font-family="Helvetica,sans-Serif" font-size="14.00">class = wine</text>
</g>
<!-- 158&#45;&gt;159 -->
<g id="edge13" class="edge">
<title>158&#45;&gt;159</title>
<path fill="none" stroke="black" d="M939.5,-309.91C939.5,-301.65 939.5,-292.86 939.5,-284.3"/>
<polygon fill="black" stroke="black" points="943,-284.02 939.5,-274.02 936,-284.02 943,-284.02"/>
</g>
<!-- 234 -->
<g id="node21" class="node">
<title>234</title>
<path fill="#f2c09b" stroke="black" d="M1345,-274C1345,-274 1148,-274 1148,-274 1142,-274 1136,-268 1136,-262 1136,-262 1136,-203 1136,-203 1136,-197 1142,-191 1148,-191 1148,-191 1345,-191 1345,-191 1351,-191 1357,-197 1357,-203 1357,-203 1357,-262 1357,-262 1357,-268 1351,-274 1345,-274"/>
<text text-anchor="start" x="1190" y="-258.8" font-family="Helvetica,sans-Serif" font-size="14.00">R8_raw ≤ 5.108</text>
<text text-anchor="start" x="1202.5" y="-243.8" font-family="Helvetica,sans-Serif" font-size="14.00">gini = 0.532</text>
<text text-anchor="start" x="1184.5" y="-228.8" font-family="Helvetica,sans-Serif" font-size="14.00">samples = 35667</text>
<text text-anchor="start" x="1144" y="-213.8" font-family="Helvetica,sans-Serif" font-size="14.00">value = [22305, 8778, 4584]</text>
<text text-anchor="start" x="1192.5" y="-198.8" font-family="Helvetica,sans-Serif" font-size="14.00">class = banana</text>
</g>
<!-- 158&#45;&gt;234 -->
<g id="edge20" class="edge">
<title>158&#45;&gt;234</title>
<path fill="none" stroke="black" d="M1046.01,-309.91C1073.4,-299.47 1102.99,-288.19 1130.81,-277.59"/>
<polygon fill="black" stroke="black" points="1132.08,-280.85 1140.18,-274.02 1129.59,-274.31 1132.08,-280.85"/>
</g>
<!-- 160 -->
<g id="node15" class="node">
<title>160</title>
<path fill="#8139e5" stroke="black" d="M921.5,-155C921.5,-155 787.5,-155 787.5,-155 781.5,-155 775.5,-149 775.5,-143 775.5,-143 775.5,-84 775.5,-84 775.5,-78 781.5,-72 787.5,-72 787.5,-72 921.5,-72 921.5,-72 927.5,-72 933.5,-78 933.5,-84 933.5,-84 933.5,-143 933.5,-143 933.5,-149 927.5,-155 921.5,-155"/>
<text text-anchor="start" x="793.5" y="-139.8" font-family="Helvetica,sans-Serif" font-size="14.00">R5_raw ≤ 11.663</text>
<text text-anchor="start" x="810.5" y="-124.8" font-family="Helvetica,sans-Serif" font-size="14.00">gini = 0.002</text>
<text text-anchor="start" x="797" y="-109.8" font-family="Helvetica,sans-Serif" font-size="14.00">samples = 1061</text>
<text text-anchor="start" x="783.5" y="-94.8" font-family="Helvetica,sans-Serif" font-size="14.00">value = [0, 1, 1060]</text>
<text text-anchor="start" x="785" y="-79.8" font-family="Helvetica,sans-Serif" font-size="14.00">class = background</text>
</g>
<!-- 159&#45;&gt;160 -->
<g id="edge14" class="edge">
<title>159&#45;&gt;160</title>
<path fill="none" stroke="black" d="M910.01,-190.91C903.55,-182.01 896.64,-172.51 889.98,-163.33"/>
<polygon fill="black" stroke="black" points="892.65,-161.05 883.94,-155.02 886.98,-165.17 892.65,-161.05"/>
</g>
<!-- 163 -->
<g id="node18" class="node">
<title>163</title>
<path fill="#5ae996" stroke="black" d="M1124,-155C1124,-155 963,-155 963,-155 957,-155 951,-149 951,-143 951,-143 951,-84 951,-84 951,-78 957,-72 963,-72 963,-72 1124,-72 1124,-72 1130,-72 1136,-78 1136,-84 1136,-84 1136,-143 1136,-143 1136,-149 1130,-155 1124,-155"/>
<text text-anchor="start" x="960.5" y="-139.8" font-family="Helvetica,sans-Serif" font-size="14.00">Humidity_raw ≤ 48.066</text>
<text text-anchor="start" x="999.5" y="-124.8" font-family="Helvetica,sans-Serif" font-size="14.00">gini = 0.247</text>
<text text-anchor="start" x="981.5" y="-109.8" font-family="Helvetica,sans-Serif" font-size="14.00">samples = 11240</text>
<text text-anchor="start" x="959" y="-94.8" font-family="Helvetica,sans-Serif" font-size="14.00">value = [0, 9615, 1625]</text>
<text text-anchor="start" x="999.5" y="-79.8" font-family="Helvetica,sans-Serif" font-size="14.00">class = wine</text>
</g>
<!-- 159&#45;&gt;163 -->
<g id="edge17" class="edge">
<title>159&#45;&gt;163</title>
<path fill="none" stroke="black" d="M975.58,-190.91C983.65,-181.83 992.28,-172.12 1000.59,-162.77"/>
<polygon fill="black" stroke="black" points="1003.45,-164.82 1007.48,-155.02 998.22,-160.17 1003.45,-164.82"/>
</g>
<!-- 161 -->
<g id="node16" class="node">
<title>161</title>
<path fill="#c0c0c0" stroke="black" d="M819.5,-36C819.5,-36 789.5,-36 789.5,-36 783.5,-36 777.5,-30 777.5,-24 777.5,-24 777.5,-12 777.5,-12 777.5,-6 783.5,0 789.5,0 789.5,0 819.5,0 819.5,0 825.5,0 831.5,-6 831.5,-12 831.5,-12 831.5,-24 831.5,-24 831.5,-30 825.5,-36 819.5,-36"/>
<text text-anchor="middle" x="804.5" y="-14.3" font-family="Helvetica,sans-Serif" font-size="14.00">(...)</text>
</g>
<!-- 160&#45;&gt;161 -->
<g id="edge15" class="edge">
<title>160&#45;&gt;161</title>
<path fill="none" stroke="black" d="M832.71,-71.76C827.95,-62.85 823.02,-53.64 818.65,-45.46"/>
<polygon fill="black" stroke="black" points="821.61,-43.57 813.81,-36.41 815.44,-46.87 821.61,-43.57"/>
</g>
<!-- 162 -->
<g id="node17" class="node">
<title>162</title>
<path fill="#c0c0c0" stroke="black" d="M891.5,-36C891.5,-36 861.5,-36 861.5,-36 855.5,-36 849.5,-30 849.5,-24 849.5,-24 849.5,-12 849.5,-12 849.5,-6 855.5,0 861.5,0 861.5,0 891.5,0 891.5,0 897.5,0 903.5,-6 903.5,-12 903.5,-12 903.5,-24 903.5,-24 903.5,-30 897.5,-36 891.5,-36"/>
<text text-anchor="middle" x="876.5" y="-14.3" font-family="Helvetica,sans-Serif" font-size="14.00">(...)</text>
</g>
<!-- 160&#45;&gt;162 -->
<g id="edge16" class="edge">
<title>160&#45;&gt;162</title>
<path fill="none" stroke="black" d="M864.09,-71.76C866.11,-63.14 868.21,-54.24 870.09,-46.26"/>
<polygon fill="black" stroke="black" points="873.52,-46.94 872.4,-36.41 866.71,-45.34 873.52,-46.94"/>
</g>
<!-- 164 -->
<g id="node19" class="node">
<title>164</title>
<path fill="#c0c0c0" stroke="black" d="M1015.5,-36C1015.5,-36 985.5,-36 985.5,-36 979.5,-36 973.5,-30 973.5,-24 973.5,-24 973.5,-12 973.5,-12 973.5,-6 979.5,0 985.5,0 985.5,0 1015.5,0 1015.5,0 1021.5,0 1027.5,-6 1027.5,-12 1027.5,-12 1027.5,-24 1027.5,-24 1027.5,-30 1021.5,-36 1015.5,-36"/>
<text text-anchor="middle" x="1000.5" y="-14.3" font-family="Helvetica,sans-Serif" font-size="14.00">(...)</text>
</g>
<!-- 163&#45;&gt;164 -->
<g id="edge18" class="edge">
<title>163&#45;&gt;164</title>
<path fill="none" stroke="black" d="M1024.76,-71.76C1020.71,-62.94 1016.52,-53.84 1012.79,-45.72"/>
<polygon fill="black" stroke="black" points="1015.86,-44.03 1008.5,-36.41 1009.5,-46.95 1015.86,-44.03"/>
</g>
<!-- 167 -->
<g id="node20" class="node">
<title>167</title>
<path fill="#c0c0c0" stroke="black" d="M1087.5,-36C1087.5,-36 1057.5,-36 1057.5,-36 1051.5,-36 1045.5,-30 1045.5,-24 1045.5,-24 1045.5,-12 1045.5,-12 1045.5,-6 1051.5,0 1057.5,0 1057.5,0 1087.5,0 1087.5,0 1093.5,0 1099.5,-6 1099.5,-12 1099.5,-12 1099.5,-24 1099.5,-24 1099.5,-30 1093.5,-36 1087.5,-36"/>
<text text-anchor="middle" x="1072.5" y="-14.3" font-family="Helvetica,sans-Serif" font-size="14.00">(...)</text>
</g>
<!-- 163&#45;&gt;167 -->
<g id="edge19" class="edge">
<title>163&#45;&gt;167</title>
<path fill="none" stroke="black" d="M1056.14,-71.76C1058.84,-63.04 1061.63,-54.04 1064.13,-45.99"/>
<polygon fill="black" stroke="black" points="1067.48,-46.99 1067.1,-36.41 1060.8,-44.92 1067.48,-46.99"/>
</g>
<!-- 235 -->
<g id="node22" class="node">
<title>235</title>
<path fill="#8ff0b8" stroke="black" d="M1327,-155C1327,-155 1166,-155 1166,-155 1160,-155 1154,-149 1154,-143 1154,-143 1154,-84 1154,-84 1154,-78 1160,-72 1166,-72 1166,-72 1327,-72 1327,-72 1333,-72 1339,-78 1339,-84 1339,-84 1339,-143 1339,-143 1339,-149 1333,-155 1327,-155"/>
<text text-anchor="start" x="1190" y="-139.8" font-family="Helvetica,sans-Serif" font-size="14.00">R7_raw ≤ 3.581</text>
<text text-anchor="start" x="1202.5" y="-124.8" font-family="Helvetica,sans-Serif" font-size="14.00">gini = 0.423</text>
<text text-anchor="start" x="1189" y="-109.8" font-family="Helvetica,sans-Serif" font-size="14.00">samples = 7188</text>
<text text-anchor="start" x="1162" y="-94.8" font-family="Helvetica,sans-Serif" font-size="14.00">value = [2, 5004, 2182]</text>
<text text-anchor="start" x="1202.5" y="-79.8" font-family="Helvetica,sans-Serif" font-size="14.00">class = wine</text>
</g>
<!-- 234&#45;&gt;235 -->
<g id="edge21" class="edge">
<title>234&#45;&gt;235</title>
<path fill="none" stroke="black" d="M1246.5,-190.91C1246.5,-182.65 1246.5,-173.86 1246.5,-165.3"/>
<polygon fill="black" stroke="black" points="1250,-165.02 1246.5,-155.02 1243,-165.02 1250,-165.02"/>
</g>
<!-- 324 -->
<g id="node25" class="node">
<title>324</title>
<path fill="#eba06a" stroke="black" d="M1566,-155C1566,-155 1369,-155 1369,-155 1363,-155 1357,-149 1357,-143 1357,-143 1357,-84 1357,-84 1357,-78 1363,-72 1369,-72 1369,-72 1566,-72 1566,-72 1572,-72 1578,-78 1578,-84 1578,-84 1578,-143 1578,-143 1578,-149 1572,-155 1566,-155"/>
<text text-anchor="start" x="1406.5" y="-139.8" font-family="Helvetica,sans-Serif" font-size="14.00">R5_raw ≤ 42.381</text>
<text text-anchor="start" x="1423.5" y="-124.8" font-family="Helvetica,sans-Serif" font-size="14.00">gini = 0.362</text>
<text text-anchor="start" x="1405.5" y="-109.8" font-family="Helvetica,sans-Serif" font-size="14.00">samples = 28479</text>
<text text-anchor="start" x="1365" y="-94.8" font-family="Helvetica,sans-Serif" font-size="14.00">value = [22303, 3774, 2402]</text>
<text text-anchor="start" x="1413.5" y="-79.8" font-family="Helvetica,sans-Serif" font-size="14.00">class = banana</text>
</g>
<!-- 234&#45;&gt;324 -->
<g id="edge24" class="edge">
<title>234&#45;&gt;324</title>
<path fill="none" stroke="black" d="M1323.17,-190.91C1342.12,-180.88 1362.53,-170.07 1381.86,-159.84"/>
<polygon fill="black" stroke="black" points="1383.76,-162.79 1390.96,-155.02 1380.49,-156.61 1383.76,-162.79"/>
</g>
<!-- 236 -->
<g id="node23" class="node">
<title>236</title>
<path fill="#c0c0c0" stroke="black" d="M1225.5,-36C1225.5,-36 1195.5,-36 1195.5,-36 1189.5,-36 1183.5,-30 1183.5,-24 1183.5,-24 1183.5,-12 1183.5,-12 1183.5,-6 1189.5,0 1195.5,0 1195.5,0 1225.5,0 1225.5,0 1231.5,0 1237.5,-6 1237.5,-12 1237.5,-12 1237.5,-24 1237.5,-24 1237.5,-30 1231.5,-36 1225.5,-36"/>
<text text-anchor="middle" x="1210.5" y="-14.3" font-family="Helvetica,sans-Serif" font-size="14.00">(...)</text>
</g>
<!-- 235&#45;&gt;236 -->
<g id="edge22" class="edge">
<title>235&#45;&gt;236</title>
<path fill="none" stroke="black" d="M1230.81,-71.76C1227.46,-63.04 1223.99,-54.04 1220.89,-45.99"/>
<polygon fill="black" stroke="black" points="1224.06,-44.48 1217.2,-36.41 1217.53,-46.99 1224.06,-44.48"/>
</g>
<!-- 237 -->
<g id="node24" class="node">
<title>237</title>
<path fill="#c0c0c0" stroke="black" d="M1297.5,-36C1297.5,-36 1267.5,-36 1267.5,-36 1261.5,-36 1255.5,-30 1255.5,-24 1255.5,-24 1255.5,-12 1255.5,-12 1255.5,-6 1261.5,0 1267.5,0 1267.5,0 1297.5,0 1297.5,0 1303.5,0 1309.5,-6 1309.5,-12 1309.5,-12 1309.5,-24 1309.5,-24 1309.5,-30 1303.5,-36 1297.5,-36"/>
<text text-anchor="middle" x="1282.5" y="-14.3" font-family="Helvetica,sans-Serif" font-size="14.00">(...)</text>
</g>
<!-- 235&#45;&gt;237 -->
<g id="edge23" class="edge">
<title>235&#45;&gt;237</title>
<path fill="none" stroke="black" d="M1262.19,-71.76C1265.54,-63.04 1269.01,-54.04 1272.11,-45.99"/>
<polygon fill="black" stroke="black" points="1275.47,-46.99 1275.8,-36.41 1268.94,-44.48 1275.47,-46.99"/>
</g>
<!-- 325 -->
<g id="node26" class="node">
<title>325</title>
<path fill="#c0c0c0" stroke="black" d="M1446.5,-36C1446.5,-36 1416.5,-36 1416.5,-36 1410.5,-36 1404.5,-30 1404.5,-24 1404.5,-24 1404.5,-12 1404.5,-12 1404.5,-6 1410.5,0 1416.5,0 1416.5,0 1446.5,0 1446.5,0 1452.5,0 1458.5,-6 1458.5,-12 1458.5,-12 1458.5,-24 1458.5,-24 1458.5,-30 1452.5,-36 1446.5,-36"/>
<text text-anchor="middle" x="1431.5" y="-14.3" font-family="Helvetica,sans-Serif" font-size="14.00">(...)</text>
</g>
<!-- 324&#45;&gt;325 -->
<g id="edge25" class="edge">
<title>324&#45;&gt;325</title>
<path fill="none" stroke="black" d="M1451.81,-71.76C1448.46,-63.04 1444.99,-54.04 1441.89,-45.99"/>
<polygon fill="black" stroke="black" points="1445.06,-44.48 1438.2,-36.41 1438.53,-46.99 1445.06,-44.48"/>
</g>
<!-- 478 -->
<g id="node27" class="node">
<title>478</title>
<path fill="#c0c0c0" stroke="black" d="M1518.5,-36C1518.5,-36 1488.5,-36 1488.5,-36 1482.5,-36 1476.5,-30 1476.5,-24 1476.5,-24 1476.5,-12 1476.5,-12 1476.5,-6 1482.5,0 1488.5,0 1488.5,0 1518.5,0 1518.5,0 1524.5,0 1530.5,-6 1530.5,-12 1530.5,-12 1530.5,-24 1530.5,-24 1530.5,-30 1524.5,-36 1518.5,-36"/>
<text text-anchor="middle" x="1503.5" y="-14.3" font-family="Helvetica,sans-Serif" font-size="14.00">(...)</text>
</g>
<!-- 324&#45;&gt;478 -->
<g id="edge26" class="edge">
<title>324&#45;&gt;478</title>
<path fill="none" stroke="black" d="M1483.19,-71.76C1486.54,-63.04 1490.01,-54.04 1493.11,-45.99"/>
<polygon fill="black" stroke="black" points="1496.47,-46.99 1496.8,-36.41 1489.94,-44.48 1496.47,-46.99"/>
</g>
</g>
</svg>
